# xmcd CD database file
# Copyright (C) 1997 Ti Kan
#
# Track frame offsets:
#  150
#  23820
#  55360
#  84850
#  115482
#  142355
#  166545
#  185042
#  217035
#  245345
#
# Disc length: 3562 seconds
#
# Revision: 1
# Processed by: cddbd v1.4b41PL1 Copyright (c) Steve Scherf et al.
# Submitted via: CDWizzard Release:4.35
#
DISCID=8d0de80a
DTITLE=Muddy Waters Band - Reunion Blues Band, (Muddy Waters Band Members
DTITLE=Re-United)
DYEAR=1900
DGENRE=
TTITLE0=I Got My Mojo Working
TTITLE1=Ida Vee
TTITLE2=Caledonia
TTITLE3=Lend Me Your Love
TTITLE4=Cryin' Shame
TTITLE5=Everything's Going To Be Alright
TTITLE6=Mojo's Jomo
TTITLE7=Going Down Slow
TTITLE8=How Long
TTITLE9=Just A Little Bit
EXTD=
EXTT0=
EXTT1=
EXTT2=
EXTT3=
EXTT4=
EXTT5=
EXTT6=
EXTT7=
EXTT8=
EXTT9=
PLAYORDER=
